<svg xmlns="http://www.w3.org/2000/svg" width="18.804" height="18.804" viewBox="0 0 18.804 18.804">
  <g id="Delete_Button" data-name="Delete Button" transform="translate(-320.891 -580.305)">
    <path id="패스_14" data-name="패스 14" d="M0,0H18.8V18.8H0Z" transform="translate(320.891 580.305)" fill="none"/>
    <path id="패스_15" data-name="패스 15" d="M10.783,18.536A1.572,1.572,0,0,0,12.35,20.1h6.268a1.572,1.572,0,0,0,1.567-1.567v-9.4h-9.4Zm1.931-5.578,1.109-1.109,1.661,1.661,1.661-1.661,1.109,1.109-1.661,1.661,1.661,1.661-1.109,1.109-1.661-1.661-1.661,1.661-1.109-1.109,1.661-1.661Zm5.512-6.174L17.443,6H13.526l-.783.783H10V8.35H20.969V6.783Z" transform="translate(314.809 576.655)" fill="#d3d3d3"/>
    <path id="패스_16" data-name="패스 16" d="M0,0H18.8V18.8H0Z" transform="translate(320.891 580.305)" fill="none"/>
  </g>
</svg>
