<svg xmlns="http://www.w3.org/2000/svg" width="16.084" height="16.084" viewBox="0 0 16.084 16.084">
  <g id="Setting_Button" data-name="Setting Button" transform="translate(0.031 -0.188)">
    <path id="패스_6" data-name="패스 6" d="M11.055.188l-.934.389.253,1.167a2.876,2.876,0,0,0-.6.622L8.585,2.093,8.2,3.027l1.011.642a2.934,2.934,0,0,0,0,.875L8.2,5.186l.37.934,1.186-.253a2.934,2.934,0,0,0,.622.6l-.292,1.186.934.389.661-1.031a2.934,2.934,0,0,0,.875,0l.642,1.031.934-.37-.272-1.186a2.932,2.932,0,0,0,.6-.622l1.206.272.389-.934-1.031-.642a2.885,2.885,0,0,0,0-.856l1.031-.661-.389-.934-1.186.272a2.867,2.867,0,0,0-.6-.622L14.147.6,13.213.207l-.642,1.011a2.934,2.934,0,0,0-.875,0Zm1.07,2.528a1.4,1.4,0,1,1-1.3.856A1.407,1.407,0,0,1,12.124,2.716Zm-7.546,3L4.325,7.267a3.832,3.832,0,0,0-1.05.428L1.991,6.781l-.934.934L1.953,9a3.957,3.957,0,0,0-.428,1.07l-1.556.253v1.323l1.556.272a3.686,3.686,0,0,0,.428,1.05l-.914,1.284.934.934,1.3-.895a3.788,3.788,0,0,0,1.05.428l.253,1.556H5.9l.272-1.556a3.876,3.876,0,0,0,1.05-.447l1.3.914.934-.934-.934-1.284a3.832,3.832,0,0,0,.428-1.05l1.575-.272V10.32l-1.575-.253a3.863,3.863,0,0,0-.428-1.05l.914-1.3-.934-.934-1.284.934a3.833,3.833,0,0,0-1.05-.447L5.9,5.711Zm.681,3.442a1.838,1.838,0,0,1,0,3.676,1.838,1.838,0,1,1,0-3.676Z" fill="#d3d3d3"/>
  </g>
</svg>
