<svg xmlns="http://www.w3.org/2000/svg" width="11.339" height="11.34" viewBox="0 0 11.339 11.34">
  <g id="Translate_Button" data-name="Translate Button" transform="translate(0 0.001)">
    <path id="패스_12" data-name="패스 12" d="M10.394,1.89H5.778L5.2.16A.236.236,0,0,0,4.961,0H.945A.945.945,0,0,0,0,.945V8.5a.945.945,0,0,0,.945.945H5.5l.638,1.739a.236.236,0,0,0,.222.151h4.03a.945.945,0,0,0,.945-.945V2.834A.945.945,0,0,0,10.394,1.89Zm-6.851,5.2a2.126,2.126,0,1,1,1.38-3.742.236.236,0,0,1-.307.359A1.654,1.654,0,1,0,5.2,5.2H3.544a.236.236,0,0,1,0-.472h1.89a.236.236,0,0,1,.236.236A2.126,2.126,0,0,1,3.544,7.087ZM9.166,5.2a5.32,5.32,0,0,1-.879,1.554,3.151,3.151,0,0,1-.506-.7.237.237,0,0,0-.439.18,3.78,3.78,0,0,0,.633.884,4.2,4.2,0,0,1-.307.293L6.908,5.2Zm1.7,5.2a.472.472,0,0,1-.472.472H6.9l1.309-1.5a.232.232,0,0,0,.043-.227h0l-.43-1.257a4.423,4.423,0,0,0,.472-.421c.472.472.912.9,1,.983a.237.237,0,1,0,.321-.35c-.222-.2-.628-.591-1.006-.992a5.429,5.429,0,0,0,1.049-1.89h.5a.236.236,0,1,0,0-.472H8.5V4.488a.236.236,0,1,0-.472,0v.236H6.851a.232.232,0,0,0-.1,0L5.939,2.362h4.455a.472.472,0,0,1,.472.472Z" transform="translate(0 0)" fill="#ffa2a2"/>
  </g>
</svg>
